<svg xmlns="http://www.w3.org/2000/svg" viewBox="-100 -100 200 160">
  <defs>
    <linearGradient id="coolF" x1="0" y1="0" x2="0" y2="1">
      <stop offset="0%" stop-color="#4a8fe5"/><stop offset="100%" stop-color="#1a3a5c"/>
    </linearGradient>
    <linearGradient id="coolT" x1="0" y1="0" x2="1" y2="1">
      <stop offset="0%" stop-color="#6aaff5"/><stop offset="100%" stop-color="#2a5a8c"/>
    </linearGradient>
    <linearGradient id="heatF" x1="0" y1="0" x2="0" y2="1">
      <stop offset="0%" stop-color="#ffcc00"/><stop offset="100%" stop-color="#e67e22"/>
    </linearGradient>
    <linearGradient id="heatT" x1="0" y1="0" x2="1" y2="1">
      <stop offset="0%" stop-color="#ffee66"/><stop offset="100%" stop-color="#f39c12"/>
    </linearGradient>
    <linearGradient id="hotF" x1="0" y1="0" x2="0" y2="1">
      <stop offset="0%" stop-color="#ff4400"/><stop offset="100%" stop-color="#aa1100"/>
    </linearGradient>
    <linearGradient id="hotT" x1="0" y1="0" x2="1" y2="1">
      <stop offset="0%" stop-color="#ff6600"/><stop offset="100%" stop-color="#dd2200"/>
    </linearGradient>
    <linearGradient id="bgGrad" x1="0" y1="0" x2="0" y2="1">
      <stop offset="0%" stop-color="#0a0a14"/><stop offset="100%" stop-color="#141428"/>
    </linearGradient>
    <filter id="glowBig"><feGaussianBlur stdDeviation="15"/></filter>
    <filter id="glowSmall"><feGaussianBlur stdDeviation="4" result="b"/><feComposite in="SourceGraphic" in2="b" operator="over"/></filter>
  </defs>

  <rect x="-220" y="-220" width="440" height="440" fill="url(#bgGrad)"/>
  <ellipse cx="0" cy="-20" rx="140" ry="90" fill="#ff6b00" opacity="0.04" filter="url(#glowBig)"/>

  <!-- ISOMETRIC M — 4 prism groups forming the letterform -->
  <!-- Isometric: X→(+0.866,+0.5), Y→(-0.866,+0.5), Z→(0,-1) -->

  <!-- ═══ GROUP 1: LEFT OUTER LEG ═══ -->
  <polygon points="-140,-70 -80,-100 -80,60 -140,90" fill="url(#coolF)" stroke="#5a9be5" stroke-width="0.5"/>
  <polygon points="-140,-70 -80,-100 -20,-70 -80,-40" fill="url(#coolT)" stroke="#5a9be5" stroke-width="0.5"/>
  <polygon points="-80,-100 -80,60 -20,90 -20,-40" fill="#122a4a" stroke="#3a7bd5" stroke-width="0.5" opacity="0.7"/>

  <!-- ═══ GROUP 2: LEFT INNER LEG (slopes toward center) ═══ -->
  <polygon points="-80,-40 -20,-70 -20,90 -80,60" fill="url(#heatF)" stroke="#e67e22" stroke-width="0.5"/>
  <polygon points="-80,-40 -20,-70 40,-40 -20,-10" fill="url(#heatT)" stroke="#f39c12" stroke-width="0.5"/>
  <polygon points="-20,-70 -20,90 40,120 40,-10" fill="#8a4400" stroke="#cc6600" stroke-width="0.5" opacity="0.6"/>

  <!-- ═══ GROUP 3: RIGHT INNER LEG (slopes down-right) ═══ -->
  <polygon points="-20,-10 40,-40 40,120 -20,90" fill="url(#hotF)" stroke="#ff4400" stroke-width="0.5"/>
  <polygon points="-20,-10 40,-40 100,-10 40,20" fill="url(#hotT)" stroke="#ff6600" stroke-width="0.5"/>
  <polygon points="40,-40 40,120 100,150 100,20" fill="#660800" stroke="#aa1100" stroke-width="0.5" opacity="0.6"/>

  <!-- ═══ GROUP 4: RIGHT OUTER LEG ═══ -->
  <polygon points="40,20 100,-10 100,150 40,120" fill="url(#hotF)" stroke="#ff3300" stroke-width="0.5" opacity="0.9"/>
  <polygon points="100,-10 160,-40 160,120 100,150" fill="url(#hotF)" stroke="#ff3300" stroke-width="0.5" opacity="0.8"/>
  <polygon points="100,-10 160,-40 100,-70 40,-40" fill="url(#hotT)" stroke="#ff5500" stroke-width="0.5" opacity="0.8"/>
  <polygon points="160,-40 160,120 100,150 100,-10" fill="#550600" stroke="#880000" stroke-width="0.5" opacity="0.5"/>

  <!-- Radiator core glow at center crossing -->
  <ellipse cx="10" cy="15" rx="60" ry="35" fill="#ffcc00" opacity="0.12" filter="url(#glowSmall)"/>
  <ellipse cx="10" cy="15" rx="30" ry="18" fill="#ffee66" opacity="0.15" filter="url(#glowSmall)"/>

  <!-- Heat fin lines (radiator core) -->
  <g stroke="#ffcc00" stroke-width="0.5" opacity="0.2">
    <line x1="-50" y1="5" x2="-50" y2="30"/>
    <line x1="-38" y1="0" x2="-38" y2="25"/>
    <line x1="-26" y1="-5" x2="-26" y2="20"/>
    <line x1="-14" y1="-10" x2="-14" y2="15"/>
    <line x1="-2" y1="-15" x2="-2" y2="10"/>
    <line x1="10" y1="-20" x2="10" y2="5"/>
    <line x1="22" y1="-15" x2="22" y2="10"/>
    <line x1="34" y1="-10" x2="34" y2="15"/>
    <line x1="46" y1="-5" x2="46" y2="20"/>
  </g>






  <g fill="#ff6600" opacity="0.25">
    <circle cx="148" cy="8" r="1.5"/>
    <circle cx="165" cy="0" r="1"/>
    <circle cx="155" cy="28" r="1.2"/>
    <circle cx="178" cy="18" r="0.8"/>
    <circle cx="150" cy="48" r="1"/>
  </g>

  <!-- Animated flow particles -->
  <circle cx="-110" cy="-30" r="1.5" fill="#88ccff" opacity="0.5">


  </circle>
  <circle cx="50" cy="30" r="2" fill="#ff4400" opacity="0.5">


  </circle>
  <circle cx="70" cy="50" r="1.5" fill="#ff8800" opacity="0.4">


  </circle>


</svg>
